<svg width="2151" height="484" viewBox="0 0 2151 484" fill="none" xmlns="http://www.w3.org/2000/svg">
<path d="M548.9 391.261C526.457 391.261 507.138 386.716 490.945 377.625C474.847 368.439 462.442 355.466 453.729 338.705C445.017 321.848 440.661 301.915 440.661 278.903C440.661 256.46 445.017 236.763 453.729 219.812C462.442 202.862 474.705 189.652 490.519 180.182C506.428 170.712 525.084 165.977 546.485 165.977C560.879 165.977 574.279 168.297 586.684 172.938C599.184 177.483 610.074 184.348 619.354 193.534C628.729 202.72 636.021 214.273 641.229 228.193C646.438 242.019 649.042 258.212 649.042 276.773V293.392H464.809V255.892H592.082C592.082 247.18 590.188 239.462 586.4 232.739C582.612 226.015 577.356 220.759 570.633 216.972C564.004 213.089 556.286 211.148 547.479 211.148C538.294 211.148 530.15 213.278 523.048 217.54C516.04 221.706 510.548 227.341 506.57 234.443C502.593 241.451 500.557 249.263 500.462 257.881V293.534C500.462 304.33 502.451 313.657 506.428 321.517C510.5 329.377 516.229 335.438 523.616 339.699C531.002 343.96 539.762 346.091 549.894 346.091C556.618 346.091 562.773 345.144 568.36 343.25C573.947 341.356 578.729 338.515 582.707 334.727C586.684 330.939 589.714 326.299 591.798 320.807L647.764 324.5C644.923 337.947 639.099 349.689 630.292 359.727C621.58 369.67 610.311 377.436 596.485 383.023C582.754 388.515 566.892 391.261 548.9 391.261ZM688.531 387V168.818H747.195V206.886H749.468C753.445 193.345 760.121 183.117 769.496 176.205C778.871 169.197 789.667 165.693 801.883 165.693C804.913 165.693 808.18 165.883 811.684 166.261C815.188 166.64 818.265 167.161 820.917 167.824V221.517C818.076 220.665 814.146 219.907 809.127 219.244C804.108 218.581 799.515 218.25 795.349 218.25C786.447 218.25 778.493 220.191 771.485 224.074C764.572 227.862 759.08 233.165 755.008 239.983C751.031 246.801 749.042 254.661 749.042 263.562V387H688.531ZM853.339 387V96.0909H913.85V205.466H915.697C918.348 199.595 922.183 193.629 927.202 187.568C932.316 181.413 938.945 176.299 947.089 172.227C955.327 168.061 965.555 165.977 977.771 165.977C993.68 165.977 1008.36 170.144 1021.8 178.477C1035.25 186.716 1046 199.169 1054.05 215.835C1062.1 232.407 1066.12 253.193 1066.12 278.193C1066.12 302.53 1062.19 323.08 1054.33 339.841C1046.57 356.508 1035.96 369.15 1022.51 377.767C1009.16 386.29 994.201 390.551 977.629 390.551C965.886 390.551 955.896 388.61 947.657 384.727C939.513 380.845 932.837 375.968 927.629 370.097C922.42 364.131 918.443 358.117 915.697 352.057H912.998V387H853.339ZM912.572 277.909C912.572 290.883 914.371 302.199 917.969 311.858C921.568 321.517 926.776 329.045 933.594 334.443C940.413 339.746 948.699 342.398 958.452 342.398C968.301 342.398 976.634 339.699 983.452 334.301C990.271 328.809 995.432 321.233 998.935 311.574C1002.53 301.82 1004.33 290.598 1004.33 277.909C1004.33 265.314 1002.58 254.235 999.077 244.67C995.574 235.106 990.413 227.625 983.594 222.227C976.776 216.83 968.396 214.131 958.452 214.131C948.604 214.131 940.271 216.735 933.452 221.943C926.729 227.152 921.568 234.538 917.969 244.102C914.371 253.667 912.572 264.936 912.572 277.909ZM1168.72 391.119C1154.79 391.119 1142.39 388.705 1131.5 383.875C1120.61 378.951 1111.99 371.706 1105.65 362.142C1099.4 352.483 1096.27 340.456 1096.27 326.062C1096.27 313.941 1098.5 303.761 1102.95 295.523C1107.4 287.284 1113.46 280.655 1121.13 275.636C1128.8 270.617 1137.51 266.83 1147.27 264.273C1157.11 261.716 1167.44 259.917 1178.23 258.875C1190.92 257.549 1201.15 256.318 1208.91 255.182C1216.68 253.951 1222.31 252.152 1225.82 249.784C1229.32 247.417 1231.07 243.913 1231.07 239.273V238.42C1231.07 229.424 1228.23 222.464 1222.55 217.54C1216.96 212.616 1209.01 210.153 1198.69 210.153C1187.8 210.153 1179.13 212.568 1172.69 217.398C1166.25 222.133 1161.99 228.098 1159.91 235.295L1103.94 230.75C1106.78 217.492 1112.37 206.034 1120.7 196.375C1129.04 186.621 1139.79 179.14 1152.95 173.932C1166.21 168.629 1181.55 165.977 1198.97 165.977C1211.09 165.977 1222.69 167.398 1233.77 170.239C1244.95 173.08 1254.84 177.483 1263.46 183.449C1272.17 189.415 1279.04 197.085 1284.06 206.46C1289.08 215.741 1291.58 226.867 1291.58 239.841V387H1234.2V356.744H1232.49C1228.99 363.562 1224.3 369.576 1218.43 374.784C1212.56 379.898 1205.5 383.922 1197.27 386.858C1189.03 389.699 1179.51 391.119 1168.72 391.119ZM1186.04 349.358C1194.95 349.358 1202.81 347.606 1209.62 344.102C1216.44 340.504 1221.79 335.674 1225.68 329.614C1229.56 323.553 1231.5 316.687 1231.5 309.017V285.864C1229.61 287.095 1227 288.231 1223.69 289.273C1220.47 290.22 1216.82 291.119 1212.75 291.972C1208.68 292.729 1204.61 293.439 1200.53 294.102C1196.46 294.67 1192.77 295.191 1189.45 295.665C1182.35 296.706 1176.15 298.364 1170.85 300.636C1165.54 302.909 1161.42 305.987 1158.49 309.869C1155.55 313.657 1154.08 318.392 1154.08 324.074C1154.08 332.312 1157.07 338.61 1163.03 342.966C1169.09 347.227 1176.76 349.358 1186.04 349.358ZM1454.58 168.818V214.273H1323.19V168.818H1454.58ZM1353.02 116.545H1413.53V319.955C1413.53 325.542 1414.38 329.898 1416.09 333.023C1417.79 336.053 1420.16 338.184 1423.19 339.415C1426.31 340.646 1429.91 341.261 1433.99 341.261C1436.83 341.261 1439.67 341.025 1442.51 340.551C1445.35 339.983 1447.53 339.557 1449.04 339.273L1458.56 384.301C1455.53 385.248 1451.27 386.337 1445.77 387.568C1440.28 388.894 1433.61 389.699 1425.75 389.983C1411.16 390.551 1398.38 388.61 1387.39 384.159C1376.5 379.708 1368.03 372.795 1361.97 363.42C1355.91 354.045 1352.92 342.208 1353.02 327.909V116.545ZM1494 387V168.818H1554.51V387H1494ZM1524.4 140.693C1515.4 140.693 1507.68 137.71 1501.24 131.744C1494.9 125.684 1491.73 118.439 1491.73 110.011C1491.73 101.678 1494.9 94.5284 1501.24 88.5625C1507.68 82.5019 1515.4 79.4716 1524.4 79.4716C1533.39 79.4716 1541.06 82.5019 1547.41 88.5625C1553.85 94.5284 1557.07 101.678 1557.07 110.011C1557.07 118.439 1553.85 125.684 1547.41 131.744C1541.06 137.71 1533.39 140.693 1524.4 140.693ZM1602.98 387V168.818H1660.65V207.312H1663.21C1667.76 194.528 1675.33 184.443 1685.94 177.057C1696.54 169.67 1709.23 165.977 1724.01 165.977C1738.97 165.977 1751.71 169.718 1762.22 177.199C1772.73 184.585 1779.74 194.623 1783.24 207.312H1785.51C1789.96 194.812 1798.01 184.822 1809.66 177.341C1821.4 169.765 1835.28 165.977 1851.28 165.977C1871.64 165.977 1888.16 172.464 1900.85 185.438C1913.64 198.316 1920.03 216.593 1920.03 240.267V387H1859.66V252.199C1859.66 240.078 1856.44 230.987 1850 224.926C1843.56 218.866 1835.51 215.835 1825.85 215.835C1814.87 215.835 1806.3 219.339 1800.14 226.347C1793.99 233.259 1790.91 242.398 1790.91 253.761V387H1732.25V250.92C1732.25 240.22 1729.17 231.697 1723.01 225.352C1716.95 219.008 1708.95 215.835 1699.01 215.835C1692.28 215.835 1686.22 217.54 1680.82 220.949C1675.52 224.263 1671.31 228.951 1668.18 235.011C1665.06 240.977 1663.5 247.985 1663.5 256.034V387H1602.98Z" fill="white"/>
<path d="M204.711 187.908L155.969 105.23L197.5 42L246.22 122.282L204.711 187.908Z" fill="#D1D2D4" stroke="#D1D2D4" stroke-width="0.5" stroke-miterlimit="10" stroke-linecap="round"/>
<path d="M83.4848 41.994L187.424 213.74L294.019 43.9277H485.89L244.36 441.726L205.961 376.745L364.432 110.916L328.19 109.495L185.352 345.385L2.71936 42.7068L83.4848 41.994Z" fill="white" stroke="white" stroke-width="2" stroke-miterlimit="10" stroke-linecap="round"/>
<path d="M117.945 41.9842L197.044 41.9023L156.487 106.312L117.945 41.9842Z" fill="white" stroke="white" stroke-width="0.5" stroke-miterlimit="10" stroke-linecap="round"/>
</svg>
